<?xml version="1.0" encoding="UTF-8"?>
<svg width="220.94" height="293.66" version="1.0" viewBox="0 0 220.93617 293.66298" xmlns="http://www.w3.org/2000/svg">
 <g transform="translate(252.46 -503.29)">
  <g transform="translate(4)">
   <path d="m-139.21 508.69c-15.356 0.25499-30.933-0.72823-45.812 3.6859-11.587 1.6943-23.098 5.207-32.25 12.71-16.679 10.872-26.412 29.814-30.781 48.997-3.1669 10.852-2.1628 22.603-1.0312 33.681 2.3059 9.179 7.6503 17.152 10.938 25.992 2.0474 6.4999 10.606 9.1052 10 16.682-0.62026 6.3803-3.8104 12.197-3.0625 18.874-0.38981 9.6705 3.8579 20.005 11.812 25.42 6.1339 0.66808 8.9918 6.858 9.3125 12.424 2.7449 11.329 8.3356 22.934 5.0312 34.793-0.0428 10.138 4.4382 19.737 7.3438 29.074 7.813 7.3863 14.759 17.75 26.336 18.647 20.104 5.8588 44.293 7.0787 61.851-6.0322 10.222-5.8414 16.719-16.402 21.344-26.945 3.7654-15.203-3.3042-31.918 3.7812-46.55 2.1224-6.5712 3.9931-16.087 12.312-16.809 4.8604-0.86581 9.9337-3.4454 10.969-8.8016 6.6745-13.628 3.4914-29.433 0.5-43.658-0.39705-7.865 8.6767-10.502 11.906-16.555 4.5722-6.4956 4.1054-14.984 6.4039-22.415 2.0396-8.7545 0.79834-17.753-0.5914-26.454-0.13393-8.5532-2.5501-17.179-8.6831-23.259-7.3952-11.833-16.817-22.554-27.723-31.139-7.9414-7.8707-19.839-5.6068-29.662-8.8849-9.9338-2.0004-20.038-3.7844-30.244-3.4754z" fill="#cac1be" fill-rule="evenodd"/>
   <path d="m-146.61 503.3c-23.636 0.19996-55.16 5.1173-76.031 19.656-0.0105 0.0104-0.0209 0.0208-0.0312 0.0312-21.122 14.995-35.098 41.01-33.688 67.625 1.2713 23.636 10.249 45.515 23.875 58.625 0.26039 0.25602 0.55553 0.47738 0.875 0.65625-0.7208 3.9017-1.4981 7.913-2.1875 12.031-0.0399 0.39202-0.0932 0.79314-0.125 1.1875-0.4846 5.9976 3e-3 11.962 1.5312 17.5 1.1838 4.4944 3.2316 9.0266 6.8126 12.312 2.5471 2.1732 5.3043 3.7229 8.0624 4.9688l-0.0312 0.0312c4.5312 10.965 8.9878 21.2 9.4375 31.312-2.0267 9.6483-1.3737 20.34 0.9687 29.188 6e-3 0.0218 0.0258 0.0407 0.0313 0.0625 3.3327 13.328 14.858 27.552 27.906 32.875l0.0624 0.0313h0.0938c11.881 4.3159 19.96 5.5625 33.125 5.5625 12.831-0.0366 20.942-1.2994 32.438-5.9063 12.94-5.1853 24.703-18.715 28.063-31.906h0.0312c0.0051-0.0189-0.0045-0.0436 0-0.0625 2.3567-8.7374 3.0231-19.316 0.9688-28.844 0.473-9.8836 4.9159-19.877 9.4375-30.625l-0.3437-0.125c0.7934-0.24832 1.6002-0.52046 2.4062-0.8125 3.3868-1.2272 6.8658-2.8963 10.125-5.5 3.8327-3.37 6.0766-8.021 7.3125-12.594 1.6308-5.6418 2.1668-11.75 1.625-17.844-0.0373-0.42004-0.0781-0.83296-0.125-1.25-1.1522-6.525-2.6293-12.708-3.75-18.562 0.48902-0.2043 0.93745-0.50325 1.3125-0.875 13.804-12.593 21.999-28.025 20.781-54.25-4e-4 -0.021 9e-4 -0.0415 0-0.0625-0.8616-26.418-13.23-49.921-35.844-66.219-0.0174-0.0128-0.0451-0.0185-0.0625-0.0312-7.228-5.305-19.23-9.4648-31.75-12.688-12.467-3.2091-25.132-5.2793-33.719-5.3125-0.059-3e-3 -0.1281 3e-3 -0.1874 0-2.9492-0.14388-6.0963-0.2155-9.4063-0.1875zm0.125 8.1875c3.2083-0.0451 6.2476 0.0155 9.0625 0.15625 0.0625 1e-3 0.12501 1e-3 0.1875 0 7.1698 5e-3 19.836 1.9635 31.875 5.0625s23.769 7.5342 28.938 11.344c0.01034 0.0105 0.02074 0.0209 0.0312 0.0312 20.803 14.97 31.761 35.857 32.531 60-1.61e-4 0.0208-1.61e-4 0.0417 0 0.0625 1.0669 22.702-4.4945 34.47-15.344 45.25-0.0657-0.66079-0.1105-1.3181-0.1563-1.9688-0.2124-3.0164-0.2303-5.9454 0.0313-8.75-0.0381-1.6024 0.2712-3.2091 0.6874-4.8438 0.4163-1.6347 0.9657-3.3028 1.4688-4.9375 0.6234-1.92 1.2308-3.8173 1.6875-5.7188 0.4568-1.9015 0.7435-3.7999 0.8125-5.625 0.0621-2.3618 0.1382-4.6197 0.0625-6.6875-0.0756-2.0678-0.2835-3.9278-0.6563-5.5625-0.3368-1.487-0.9026-2.7456-1.5-3.7188-0.5969-0.97317-1.2297-1.6865-1.8124-2.1562-0.5827-0.46977-1.1087-0.68846-1.5-0.78125-0.3917-0.0928-0.6489-0.0635-0.7813 0.0937-0.1324 0.15717-0.1177 0.40791 0 0.71875 0.1176 0.31084 0.3396 0.69681 0.5937 1.2188 0.2547 0.52194 0.5532 1.1699 0.8126 2 0.2593 0.83013 0.4706 1.8464 0.5937 3 0.1422 1.4242 0.1619 3.0705 0.0625 4.9688-0.0993 1.8983-0.3224 4.0536-0.5 6.4688-0.0913 1.4317-0.3975 2.9633-0.875 4.625-0.4774 1.6617-1.1226 3.4437-1.7812 5.375-0.5707 1.5495-1.1854 3.2438-1.6876 5.0938-0.5018 1.85-0.8963 3.8488-0.9687 6.0312-0.3021 3.1002-0.3157 6.2939-0.125 9.5312 0.1907 3.2374 0.5925 6.5268 1.1563 9.875 1.1268 6.6963 2.8578 13.597 4.1562 20.594 0.0411 0.37538 0.0923 0.74751 0.125 1.125 0.4707 5.4386 0.0074 10.811-1.4375 15.688-1.259 4.0596-2.9168 7.8491-5.625 10.031-2.4793 2.1383-5.3986 3.4966-8.4375 4.5938-3.0389 1.0971-6.1773 1.92-9.1562 2.7812-3.3181 0.85632-6.1803 2.2295-8.6876 3.6875-2.5066 1.458-4.6715 3.0046-6.5937 4.4062-1.4891 1.4866-2.7964 3.0596-3.8437 4.625-1.0482 1.5654-1.8415 3.1288-2.4063 4.625-0.513 1.4735-0.7761 2.816-0.9063 3.9688-0.0942 0.83699-0.112 1.5461-0.0937 2.1875-8.7769 5.232-22.667 6.5105-39.062 6.5938h-0.0312c-14.284 0.25691-30.099-0.7573-39.219-5.7812 0.0924-0.62207 0.1666-1.3221 0.1562-2.1562-0.0124-1.0676-0.1427-2.2795-0.5-3.6562-0.3763-1.3991-1.0018-2.9177-1.875-4.4688-0.8727-1.551-1.9965-3.1604-3.3437-4.7188-1.8053-1.522-3.8383-3.1918-6.2187-4.7812-2.3808-1.5895-5.1271-3.0758-8.4063-4.0938-1.6019-0.55867-3.2326-1.1332-4.875-1.7188-0.0478-0.11534-0.1084-0.22846-0.1563-0.34375l-0.375 0.15625c-1.1907-0.43007-2.3919-0.86132-3.5624-1.3438-2.9595-1.2193-5.7764-2.6639-8.0626-4.8125-2.4583-2.096-3.8854-5.734-5.0937-9.7188-1.3447-4.7774-1.7586-10.027-1.3437-15.375 0.0268-0.34913 0.0598-0.68359 0.0937-1.0312 1.2262-6.9678 2.7777-13.963 3.6563-20.75 0.4387-3.3937 0.7146-6.7318 0.75-10 0.0348-3.2682-0.176-6.4506-0.6563-9.5312-0.1805-2.149-0.6711-4.1139-1.2813-5.9062-0.6096-1.7924-1.3188-3.4115-2-4.9375-0.8007-1.8806-1.6141-3.6547-2.25-5.3438-0.6352-1.689-1.1074-3.2958-1.375-4.875-0.388-2.3776-0.8023-4.5409-1.0937-6.5312s-0.4799-3.8231-0.5-5.4688c-0.0185-1.4732 0.1672-2.809 0.4375-3.9688 0.2703-1.1597 0.6249-2.1414 0.9688-2.9375 0.3432-0.79612 0.6807-1.4058 0.875-1.875 0.1938-0.46916 0.2575-0.78073 0.125-0.9375-0.0668-0.0784-0.1903-0.11334-0.3438-0.0937-0.1535 0.0196-0.3284 0.0928-0.5625 0.21875-0.4683 0.25188-1.1091 0.7242-1.7813 1.4688-0.6714 0.74454-1.3922 1.76-2 3.0625-0.6072 1.3025-1.0869 2.8833-1.2812 4.6875-0.2104 1.8554-0.2414 3.9032-0.125 6.0625s0.3836 4.4256 0.6562 6.75c0.2446 1.9713 0.6977 3.9469 1.3126 5.875 0.6142 1.9281 1.3909 3.818 2.1562 5.6875 0.6141 1.6107 1.2572 3.2035 1.7812 4.7812 0.5245 1.5777 0.9297 3.1478 1 4.7188 0.44 2.7862 0.6189 5.7019 0.5626 8.75-0.05 2.6767-0.2948 5.456-0.6563 8.3125-9.9219-11.587-17.057-29.992-18.125-49.719-5e-4 -0.0104 5e-4 -0.0208 0-0.0312-1.2309-23.459 11.422-47.167 30.219-60.531 0.0121-9e-3 0.0193-0.0227 0.0313-0.0312 18.296-12.725 48.917-17.809 71.375-18.125zm-52.719 113.02c-20.116 11.614-1.7811 36.571-3.375 50.918 14.747-1.8853 29.933-2.1964 44.719-0.21875 0.1078-3.8743 1.8431-7.3519 4.5937-9.7812zm110.63 0-45.875 40.855c2.7907 2.426 4.57 5.912 4.6874 9.8125 14.736-1.9546 29.867-1.6286 44.563 0.25-1.5943-14.347 16.741-39.304-3.375-50.918zm-60.531 63.761-3.3251 13.81c-2.3097 9.5924 16.455 9.841 18.017 1.8628l-4.5357-15.516c-1.5195 0.5455-3.1611 0.875-4.875 0.875-1.8748 0-3.6453-0.38436-5.2813-1.0312zm-58.125 13.281c0.2952 0.0886 0.6164 0.19425 0.9063 0.28125 0.7672 0.18814 1.4975 0.44202 2.2187 0.71875 3.5176 8.271 4.6789 11.566 7.2813 20 6e-3 0.0219-7e-3 0.0407 0 0.0625 2.222 7.8226 3.027 12.565 4.4062 23.688l-0.0625 0.0625c0.0283 0.0341 0.0658 0.0598 0.0937 0.0937 5e-3 0.0351-4e-3 0.0585 0 0.0937h0.0626c11.834 14.12 28.429 16.585 46.469 17.062 9.9172 0.3619 19.768-1.4066 27.906-4.5312 8.1268-3.1201 14.634-7.501 17.531-13.031h0.0312c1.4031-11.344 2.1887-16.029 4.4376-23.938 0.0027-0.011-0.0037-0.0203 0-0.0312 2.3951-7.7661 3.6356-11.289 6.5312-18.188 1.4909-0.7651 3.0557-1.4424 4.6875-1.9375-3.7754 8.9586-7.369 18.186-7.7813 28.219l-0.0312 0.53125 0.125 0.53125c1.8801 8.0301 1.309 18.06-0.7812 25.781v0.0313l-0.0313 0.0312c-2.4594 9.7361-13.57 22.59-23.25 26.469-10.799 4.3277-17.103 5.2838-29.438 5.3125v-0.0625c-12.709 0-19.064-0.9649-30.344-5.0625-9.5217-3.9607-20.5-17.329-22.969-27.281v-0.0625c-2.0926-7.8686-2.6642-18.061-0.7813-26.25l0.125-0.53125-0.0312-0.5625c-0.3939-9.7648-3.712-18.751-7.3125-27.5zm8.7813 4c1.828 1.1821 3.5501 2.4302 5.1874 3.5938 1.2089 1.2787 2.2491 2.508 3.0626 3.6875 0.8127 1.1796 1.3934 2.2936 1.8124 3.3438 0.4547 1.0302 0.7467 2.049 0.9688 2.9375 0.2221 0.88855 0.3881 1.6665 0.5312 2.3125 0.0452 0.20218 0.0813 0.35719 0.125 0.53125l-0.6562 1.0938c0.9127 0.55979 1.8972 1.0559 2.9062 1.5312h-0.4687l-0.25 23.438c-1.1286-1.0122-2.2268-2.115-3.2813-3.3125-1.3065-10.384-2.2058-15.547-4.4062-23.281v-0.0312c-2.0908-6.7789-3.3365-10.448-5.5312-15.844zm103.28 1.6562c-1.693 4.317-2.8812 7.8625-4.6875 13.719v0.0312c-2.2338 7.8523-3.1294 12.979-4.4687 23.688-0.6935 1.1698-1.6965 2.3473-2.9376 3.5l-0.25-23.969c0.9882-0.47141 1.9638-0.94866 2.875-1.5l-0.2812-0.46875c0.1613-0.36481 0.3121-0.83124 0.5-1.4375 0.2187-0.70554 0.4737-1.5583 0.8125-2.5312 0.3388-0.97292 0.7655-2.0619 1.375-3.1875 0.6069-1.1466 1.3879-2.3377 2.375-3.5312 0.9871-1.1936 2.1806-2.3862 3.5313-3.5938 0.375-0.22864 0.7717-0.48329 1.1562-0.71875zm-15.563 18.375 0.0937 10.156c-1.867 1.2455-3.7765 2.3012-5.75 3.1875l-0.0624-11.656c1.996-0.47929 3.9155-1.0203 5.7187-1.6875zm-71 0.15625c1.7634 0.65988 3.611 1.245 5.5625 1.7188l-0.0625 11.438c-1.926-0.8565-3.8133-1.8298-5.625-2.9375zm62 2.2188 0.0625 12.25c-2.1054 0.73886-4.2855 1.3498-6.5625 1.8125l-0.125-13.094c2.2908-0.2496 4.5044-0.57282 6.625-0.96875zm-53.188 0.1875c2.1012 0.39694 4.281 0.72532 6.5 0.96875l-0.125 13c-2.2173-0.51062-4.3505-1.1469-6.4375-1.9062zm43.281 1.0938 0.125 13.344c-1.725 0.25975-3.4996 0.46279-5.3437 0.625l-0.0625-13.625c1.7935-0.0832 3.5647-0.20489 5.2812-0.34375zm-33.5 0.1875c1.8378 0.14599 3.6976 0.24049 5.5626 0.3125l-0.0626 13.781c-1.9207-0.17458-3.7903-0.43106-5.625-0.75zm24.969 0.28125 0.0625 13.719c-2.0284 0.1253-4.1242 0.21744-6.3125 0.28125v-13.906c2.1234-0.017 4.207-0.0318 6.25-0.0937zm-16.156 0.0937c2.2355 0.0436 4.453 0.0547 6.6562 0.0312v13.969c-2.2973 0.0496-4.5313 0.047-6.7188-0.0625zm43.719 9.75 0.125 11.125c-1.7138 1.1717-3.6652 2.2738-5.8437 3.2812l-0.0626-11.5c1.9747-0.81056 3.8997-1.7794 5.7813-2.9062zm-71.281 0.15625c1.8191 1.0212 3.7089 1.8934 5.625 2.6875l-0.0624 11.594c-1.9774-0.95009-3.8705-2.0765-5.6876-3.375zm8.9063 3.9375c2.0908 0.71244 4.2385 1.33 6.4375 1.8125l-0.125 11.844c-2.1999-0.5201-4.3222-1.1245-6.375-1.9063zm53.344 0 0.0626 11.688c-2.0571 0.78141-4.2462 1.4743-6.5313 2.0625l-0.125-12.062c2.2642-0.43855 4.4667-0.9951 6.5937-1.6875zm-9.8437 2.2188 0.125 12.281c-1.779 0.3666-3.5873 0.6744-5.4375 0.9062l-0.0625-12.562c1.8414-0.15917 3.6278-0.37042 5.375-0.625zm-33.812 0.21875c1.8373 0.30728 3.7167 0.5176 5.625 0.6875l-0.0625 12.031c-1.9397-0.2132-3.8382-0.4758-5.6875-0.8125zm25.188 0.625 0.0625 12.656c-2.1073 0.165-4.2456 0.2218-6.375 0.1875v-12.562c2.1715-0.0627 4.2685-0.15643 6.3125-0.28125zm-16.281 0.3125c2.1965 0.10829 4.434 0.10969 6.7188 0.0625v12.406c-2.3102-0.0808-4.5743-0.2006-6.7812-0.375z" color="#000000" fill-opacity=".99123" style="block-progression:tb;text-indent:0;text-transform:none"/>
  </g>
 </g>
</svg>
