<?xml version="1.0" encoding="UTF-8" standalone="no"?>
<!-- Created with Inkscape (http://www.inkscape.org/) -->

<svg
   xmlns:dc="http://purl.org/dc/elements/1.1/"
   xmlns:cc="http://creativecommons.org/ns#"
   xmlns:rdf="http://www.w3.org/1999/02/22-rdf-syntax-ns#"
   xmlns:svg="http://www.w3.org/2000/svg"
   xmlns="http://www.w3.org/2000/svg"
   xmlns:sodipodi="http://sodipodi.sourceforge.net/DTD/sodipodi-0.dtd"
   xmlns:inkscape="http://www.inkscape.org/namespaces/inkscape"
   width="210mm"
   height="297mm"
   viewBox="0 0 744.09448819 1052.3622047"
   id="svg5835"
   version="1.1"
   inkscape:version="0.91 r13725"
   sodipodi:docname="ninja_yellow.svg">
  <defs
     id="defs5837" />
  <sodipodi:namedview
     id="base"
     pagecolor="#ffffff"
     bordercolor="#666666"
     borderopacity="1.0"
     inkscape:pageopacity="0.0"
     inkscape:pageshadow="2"
     inkscape:zoom="0.35"
     inkscape:cx="-265"
     inkscape:cy="520"
     inkscape:document-units="px"
     inkscape:current-layer="layer1"
     showgrid="false"
     inkscape:window-width="1920"
     inkscape:window-height="1016"
     inkscape:window-x="1920"
     inkscape:window-y="27"
     inkscape:window-maximized="1" />
  <metadata
     id="metadata5840">
    <rdf:RDF>
      <cc:Work
         rdf:about="">
        <dc:format>image/svg+xml</dc:format>
        <dc:type
           rdf:resource="http://purl.org/dc/dcmitype/StillImage" />
        <dc:title></dc:title>
      </cc:Work>
    </rdf:RDF>
  </metadata>
  <g
     inkscape:label="Capa 1"
     inkscape:groupmode="layer"
     id="layer1">
    <path
       inkscape:connector-curvature="0"
       d="m 685.61243,365.73765 c 0,0 5.1091,-48.54325 44.30962,-78.08335 -14.91154,-14.24377 -18.31144,-14.78149 -18.31144,-14.78149 0,0 -17.47994,17.93914 -20.88908,27.435 -0.425,-8.43187 3.40914,-26.90874 11.50239,-36.40457 5.11833,-5.80049 -26.41393,-11.61241 -31.94802,-8.44331 -5.55257,3.15766 -12.7866,23.73963 -13.22082,26.90872 -0.43423,3.15765 -9.38671,3.68394 -6.80905,-0.52627 2.54992,-4.21021 9.37744,-18.46542 12.78659,-22.68708 0,0 -17.04572,-1.59026 -18.74568,-0.52628 -1.69994,1.06401 -16.62072,31.65666 -18.3022,41.67879 -24.73245,-5.27421 -52.41212,-31.65666 -64.77372,-32.1715 -12.36162,-0.52626 -7.22481,8.96958 -28.54811,6.3382 3.40914,-21.10825 5.1091,-41.15249 2.12493,-57.51281 0,0 -67.32366,-148.249682 -263.73284,-142.449212 -16.62072,0 -13.63657,44.847872 10.2182,59.617922 0,0 -18.81035,44.32161 -20.69508,46.43815 -1.88473,2.1051 -19.78041,-3.16909 -28.29866,-22.68708 C 223.76122,138.35208 106.16886,28.600628 86.998197,22.800158 67.827546,16.999674 22.242951,65.005198 18.833806,78.196424 15.424663,91.38765 60.159274,128.84479 80.179909,130.96132 c 10.827962,1.13263 7.24328,-8.96957 13.211584,-4.22165 24.279757,14.24378 88.194267,94.44367 95.012567,255.35831 1.60757,41.88469 10.65242,81.96176 -15.47511,157.23068 -14.77296,46.42671 -28.9731,189.21913 -19.88206,239.87891 9.09105,50.64835 18.18211,138.57077 125.54704,192.75433 -6.25472,40.1228 -9.09105,64.732 -9.09105,64.732 L 344.4948,896.71587 c 0,0 0.56357,-12.65351 -10.80024,-16.17728 -11.35458,-3.54664 -41.46406,-91.46906 -35.79139,-99.90091 24.64008,-39.05885 81.80096,-105.51835 104.5286,-119.57908 20.60267,34.35668 49.2709,103.93952 48.84591,119.57908 -0.42499,15.66242 46.42533,39.39062 66.03946,25.15828 3.39066,-2.63138 51.5529,-62.24931 43.01618,-140.35554 -15.75228,3.68393 -26.82968,11.08611 -30.67306,14.77005 5.12758,-23.72818 6.81829,-150.89249 -5.55256,-168.83165 -12.35236,-17.93914 -47.28454,-5.80048 -52.40288,-2.64282 4.25912,-7.39074 11.92738,-46.95297 6.80905,-54.34371 -5.12757,-7.39076 61.35535,-72.80915 77.12611,-75.97826 15.76151,-3.15766 80.53524,14.24379 91.59417,24.80363 13.66429,-1.59028 46.44381,-3.69538 63.48953,2.63138 0,0 6.37482,-31.65665 3.83413,-40.09996 0.0277,-4.7708 -28.94538,-0.0114 -28.94538,-0.0114 z m -309.28971,33.07531 c -4.01892,17.44719 -23.39284,32.19436 -42.33252,32.19436 l -2.67004,-0.10295 c -18.24677,-1.29282 -34.08219,-21.55445 -47.09976,-60.22429 l -0.25869,-0.76654 c -2.32819,-6.72717 -1.07171,-14.54123 3.16893,-19.64382 2.72546,-3.29495 6.32862,-5.02251 9.97798,-5.02251 2.02332,0 4.0651,0.52628 5.97756,1.6246 6.55035,3.74114 51.41432,22.17224 60.44069,24.12861 1.79234,0.38898 3.50153,1.18984 5.04442,2.37969 7.03079,5.36572 10.06113,15.34209 7.75143,25.43286 z m 76.75654,21.11968 c -3.67707,1.70468 -7.79761,2.57418 -12.18607,2.57418 -11.52088,0 -35.10772,-8.22592 -37.38047,-27.2405 -1.18259,-9.9535 3.69554,-19.03747 11.91813,-22.12649 10.56927,-3.96995 36.11476,-15.98277 44.1803,-21.13112 2.68851,-1.70468 5.45092,-2.58562 8.19487,-2.58562 7.63131,0 13.91374,6.56701 15.28109,15.97134 2.44831,16.73787 -14.37568,47.31907 -30.00785,54.53821 z"
       id="path10"
       style="fill:#ebd300;fill-opacity:0.89361703"
       inkscape:export-filename="/home/marcos/Source/desafiolatam/ninja/ninja.png"
       inkscape:export-xdpi="90"
       inkscape:export-ydpi="90" />
  </g>
</svg>
